<?xml version="1.0" encoding="UTF-8" standalone="no"?>
<svg
   xmlns:dc="http://purl.org/dc/elements/1.1/"
   xmlns:cc="http://creativecommons.org/ns#"
   xmlns:rdf="http://www.w3.org/1999/02/22-rdf-syntax-ns#"
   xmlns:svg="http://www.w3.org/2000/svg"
   xmlns="http://www.w3.org/2000/svg"
   xmlns:sodipodi="http://sodipodi.sourceforge.net/DTD/sodipodi-0.dtd"
   xmlns:inkscape="http://www.inkscape.org/namespaces/inkscape"
   id="svg8"
   version="1.1"
   viewBox="0 0 50 50"
   height="40px"
   width="40px"
   sodipodi:docname="firewall.svg"
   inkscape:version="0.92.4 (5da689c313, 2019-01-14)">
  <sodipodi:namedview
     pagecolor="#ffffff"
     bordercolor="#666666"
     borderopacity="1"
     objecttolerance="10"
     gridtolerance="10"
     guidetolerance="10"
     inkscape:pageopacity="0"
     inkscape:pageshadow="2"
     inkscape:window-width="1600"
     inkscape:window-height="881"
     id="namedview15"
     showgrid="true"
     inkscape:pagecheckerboard="true"
     inkscape:zoom="2.56"
     inkscape:cx="-29.578492"
     inkscape:cy="35.017495"
     inkscape:window-x="0"
     inkscape:window-y="19"
     inkscape:window-maximized="0"
     inkscape:current-layer="layer1"
     inkscape:snap-bbox="true"
     inkscape:snap-bbox-midpoints="true">
    <inkscape:grid
       type="xygrid"
       id="grid925" />
  </sodipodi:namedview>
  <defs
     id="defs2">
    <inkscape:perspective
       sodipodi:type="inkscape:persp3d"
       inkscape:vp_x="-45.740971 : -0.19067895 : 1"
       inkscape:vp_y="0 : 1000 : 0"
       inkscape:vp_z="37.294174 : 64.885241 : 1"
       inkscape:persp3d-origin="18.591844 : -20.345954 : 1"
       id="perspective902" />
    <marker
       style="overflow:visible"
       id="DotL"
       refX="0.0"
       refY="0.0"
       orient="auto">
      <path
         transform="scale(0.8) translate(7.4, 1)"
         style="fill-rule:evenodd;stroke:#000000;stroke-width:1pt;stroke-opacity:1;fill:#000000;fill-opacity:1"
         d="M -2.5,-1.0 C -2.5,1.7600000 -4.7400000,4.0 -7.5,4.0 C -10.260000,4.0 -12.5,1.7600000 -12.5,-1.0 C -12.5,-3.7600000 -10.260000,-6.0 -7.5,-6.0 C -4.7400000,-6.0 -2.5,-3.7600000 -2.5,-1.0 z "
         id="path878" />
    </marker>
  </defs>
  <metadata
     id="metadata5">
    <rdf:RDF>
      <cc:Work
         rdf:about="">
        <dc:format>image/svg+xml</dc:format>
        <dc:type
           rdf:resource="http://purl.org/dc/dcmitype/StillImage" />
        <dc:title />
      </cc:Work>
    </rdf:RDF>
  </metadata>
  <g
     transform="translate(-3.8669902,-244.12738)"
     id="layer1">
    <path
       style="color:#000000;font-style:normal;font-variant:normal;font-weight:normal;font-stretch:normal;font-size:medium;line-height:normal;font-family:sans-serif;font-variant-ligatures:normal;font-variant-position:normal;font-variant-caps:normal;font-variant-numeric:normal;font-variant-alternates:normal;font-feature-settings:normal;text-indent:0;text-align:start;text-decoration:none;text-decoration-line:none;text-decoration-style:solid;text-decoration-color:#000000;letter-spacing:normal;word-spacing:normal;text-transform:none;writing-mode:lr-tb;direction:ltr;text-orientation:mixed;dominant-baseline:auto;baseline-shift:baseline;text-anchor:start;white-space:normal;shape-padding:0;clip-rule:nonzero;display:inline;overflow:visible;visibility:visible;opacity:1;isolation:auto;mix-blend-mode:normal;color-interpolation:sRGB;color-interpolation-filters:linearRGB;solid-color:#000000;solid-opacity:1;vector-effect:none;fill:#f9f9f9;fill-opacity:1;fill-rule:nonzero;stroke:none;stroke-width:3.54375124;stroke-linecap:square;stroke-linejoin:round;stroke-miterlimit:4;stroke-dasharray:none;stroke-dashoffset:0;stroke-opacity:1;color-rendering:auto;image-rendering:auto;shape-rendering:auto;text-rendering:auto;enable-background:accumulate"
       d="m 7.1381536,250.49585 a 1.7291147,1.8160572 0 0 0 -1.7288363,1.81576 v 11.2113 11.20894 11.2113 a 1.7291147,1.8160572 0 0 0 1.7288363,1.81576 H 23.434781 39.731408 50.595827 a 1.7291147,1.8160572 0 0 0 1.728836,-1.81576 v -11.2113 -11.20894 -11.2113 a 1.7291147,1.8160572 0 0 0 -1.728836,-1.81576 H 39.731408 23.434781 Z m 1.7288364,3.63153 h 12.838954 v 7.57976 H 18.002572 8.86699 Z m 16.296628,0 h 12.838954 v 7.57976 h -3.703373 -9.135581 z m 16.296627,0 h 7.406745 v 7.57976 H 41.460245 Z M 8.86699,265.33867 h 7.406746 v 7.57742 H 8.86699 Z m 10.864419,0 h 3.703372 9.135582 v 7.57742 h -9.135582 -3.703372 z m 16.296627,0 h 3.703372 9.135582 v 7.57742 H 39.731408 36.028036 Z M 8.86699,276.54762 h 9.135582 3.703372 v 7.57976 H 8.86699 Z m 16.296628,0 h 9.135581 3.703373 v 7.57976 H 25.163618 Z m 16.296627,0 h 7.406745 v 7.57976 h -7.406745 z"
       id="rect1074"
       inkscape:connector-curvature="0" />
  </g>
</svg>
